<svg id="visual" viewBox="0 0 900 600" width="900" height="600" xmlns="http://www.w3.org/2000/svg" xmlns:xlink="http://www.w3.org/1999/xlink" version="1.1"><path d="M0 430L113 430L113 417L225 417L225 430L338 430L338 471L450 471L450 457L563 457L563 469L675 469L675 460L788 460L788 472L900 472L900 455L900 601L900 601L788 601L788 601L675 601L675 601L563 601L563 601L450 601L450 601L338 601L338 601L225 601L225 601L113 601L113 601L0 601Z" fill="#470077"></path><path d="M0 482L113 482L113 507L225 507L225 522L338 522L338 454L450 454L450 492L563 492L563 508L675 508L675 494L788 494L788 482L900 482L900 510L900 601L900 601L788 601L788 601L675 601L675 601L563 601L563 601L450 601L450 601L338 601L338 601L225 601L225 601L113 601L113 601L0 601Z" fill="#3e59cf"></path><path d="M0 553L113 553L113 543L225 543L225 534L338 534L338 535L450 535L450 523L563 523L563 564L675 564L675 534L788 534L788 532L900 532L900 512L900 601L900 601L788 601L788 601L675 601L675 601L563 601L563 601L450 601L450 601L338 601L338 601L225 601L225 601L113 601L113 601L0 601Z" fill="#0096ff"></path></svg>