<svg id="visual" viewBox="0 0 900 600" width="900" height="600" xmlns="http://www.w3.org/2000/svg" xmlns:xlink="http://www.w3.org/1999/xlink" version="1.1"><rect x="0" y="0" width="900" height="600" fill="#140021"></rect><path d="M0 396L129 396L129 389L257 389L257 383L386 383L386 364L514 364L514 408L643 408L643 407L771 407L771 395L900 395L900 390L900 601L900 601L771 601L771 601L643 601L643 601L514 601L514 601L386 601L386 601L257 601L257 601L129 601L129 601L0 601Z" fill="#9900ff"></path><path d="M0 443L129 443L129 450L257 450L257 452L386 452L386 444L514 444L514 428L643 428L643 434L771 434L771 458L900 458L900 458L900 601L900 601L771 601L771 601L643 601L643 601L514 601L514 601L386 601L386 601L257 601L257 601L129 601L129 601L0 601Z" fill="#8200d9"></path><path d="M0 476L129 476L129 504L257 504L257 497L386 497L386 477L514 477L514 499L643 499L643 475L771 475L771 495L900 495L900 474L900 601L900 601L771 601L771 601L643 601L643 601L514 601L514 601L386 601L386 601L257 601L257 601L129 601L129 601L0 601Z" fill="#6c00b4"></path><path d="M0 554L129 554L129 535L257 535L257 529L386 529L386 553L514 553L514 555L643 555L643 533L771 533L771 557L900 557L900 546L900 601L900 601L771 601L771 601L643 601L643 601L514 601L514 601L386 601L386 601L257 601L257 601L129 601L129 601L0 601Z" fill="#560090"></path></svg>